<svg height="218.75" viewBox="27.26 27.3 199.44 95.38" width="457.142857" xmlns="http://www.w3.org/2000/svg"><g fill="#630f54"><path d="m185.949219 104.804688c-13.882813 0-25.402344-9.550782-25.402344-25.816407 0-15.511719 11.898437-25.25 24.929687-25.25 13.21875 0 24.550782 8.984375 24.550782 26.382813v1.890625c0 .378906-.378906.757812-.847656.757812h-36.453126c.945313 7.753907 6.609376 12.578125 13.597657 12.578125 4.441406 0 8.878906-1.515625 11.144531-5.582031.09375-.1875.28125-.28125.566406-.28125h10.765625c.378907 0 .660157.378906.566407.757813-3.304688 10.210937-13.503907 14.5625-23.417969 14.5625zm-.664063-41.609376c-6.417968 0-11.800781 4.066407-12.652344 10.96875h24.929688c-.566406-6.621093-5.476562-10.96875-12.277344-10.96875zm0 0"/><path d="m142.230469 103.859375h-10.953125c-.285156 0-.472656-.191406-.472656-.476563v-47.847656c0-.285156.1875-.570312.472656-.570312h10.667968c.378907 0 .566407.285156.566407.570312v6.902344c1.039062-1.703125 2.269531-3.308594 3.875-4.632812 2.925781-2.269532 5.664062-3.214844 9.914062-3.214844 1.132813 0 1.984375 0 2.738281.1875.1875 0 .660157.1875.660157.664062v10.210938c0 .378906-.28125.664062-.660157.566406-1.890624-.09375-2.925781-.09375-4.15625-.09375-5.289062 0-12.085937 1.890625-12.085937 11.441406v25.722656c0 .378907-.1875.570313-.566406.570313zm0 0"/><path d="m101.832031 122.675781c-13.40625 0-21.8125-6.242187-23.703125-15.886719-.09375-.378906.191406-.660156.566406-.660156h10.765626c.285156 0 .472656.09375.566406.375 1.417968 4.445313 5.382812 6.90625 11.898437 6.90625 6.800781 0 11.238281-3.5 11.238281-10.875v-7.378906c-2.738281 4.445312-7.835937 7.28125-14.730468 7.28125-11.898438 0-21.71875-8.792969-21.71875-24.492188 0-15.320312 10.292968-24.207031 21.90625-24.207031 6.800781 0 11.804687 2.929688 14.636718 7.660157v-5.957032c0-.285156.285157-.570312.566407-.570312h10.765625c.285156 0 .566406.285156.566406.570312v46.621094c0 13.898438-10.292969 20.613281-23.324219 20.613281zm-.566406-30.070312c6.707031 0 11.992187-5.582031 11.992187-14.660157 0-9.078124-5.382812-14.277343-11.992187-14.277343-6.890625 0-12.179687 5.484375-12.179687 14.277343 0 9.078126 5.289062 14.660157 12.179687 14.660157zm0 0"/><path d="m69.15625 39.175781-32.011719 32.058594c-.285156.28125-.757812.1875-.945312-.285156l-1.890625-5.769531c0-.1875 0-.378907.191406-.566407l9.347656-9.363281h-15.957031c-.472656 0-.757813-.472656-.566406-.851562l2.738281-5.484376c.09375-.1875.28125-.28125.566406-.28125h13.21875l-11.332031-11.347656c-.28125-.285156-.1875-.851562.285156-.949218l5.757813-1.890626c.191406-.09375.472656 0 .566406.097657l9.445312 9.453125v-16.074219c0-.472656.375-.757813.847657-.566406l5.382812 2.742187c.191407.09375.285157.378906.285157.566406v13.238282l11.332031-11.253906c.375-.375.847656-.1875 1.039062.191406l1.792969 5.765625c.09375.191406.09375.378906-.09375.570312zm6.609375 9.457031c.472656 0 .753906.375.566406.851563l-2.738281 5.386719c-.09375.191406-.378906.285156-.566406.285156h-13.222656l11.238281 11.347656c.378906.378906.285156.851563-.1875 1.039063l-5.761719 1.894531c-.1875 0-.472656 0-.566406-.191406l-9.441406-9.363282v15.984376c0 .472656-.472657.757812-.851563.566406l-5.382813-2.742188c-.1875-.09375-.28125-.285156-.28125-.566406v-8.324219c0-.1875 0-.375.09375-.472656l15.582032-15.507813c.09375-.1875.28125-.1875.375-.1875zm0 0"/><path d="m219.601562 98.25h1.238282c.640625 0 .945312-.300781.945312-.820312 0-.519532-.335937-.855469-.945312-.855469h-1.238282zm0 1.15625v2.28125h-1.367187v-6.234375h2.945313c1.335937 0 2.035156.910156 2.035156 1.949219 0 .910156-.546875 1.492187-1.214844 1.738281v.035156c.089844.117188.152344.207031.332031.609375l1.0625 1.910156h-1.582031l-1.09375-2.039062c-.089844-.207031-.152344-.242188-.394531-.242188h-.730469zm5.734376-.792969c0-2.554687-2.121094-4.867187-4.738282-4.867187-2.613281 0-4.734375 2.277344-4.734375 4.867187 0 2.59375 2.121094 4.839844 4.734375 4.839844 2.617188 0 4.738282-2.226563 4.738282-4.839844zm-10.8125 0c0-3.410156 2.703124-6.117187 6.074218-6.117187 3.375 0 6.105469 2.585937 6.105469 6.117187s-2.792969 6.082031-6.105469 6.082031c-3.308594 0-6.074218-2.703124-6.074218-6.082031zm0 0"/></g></svg>